name Visual3d_SIMM_grf.mot
datacolumns 19
datarows 46
range 0.290000 0.740000
endheader
time	ground_force_vx	ground_force_vy	ground_force_vz	ground_force_px	ground_force_py	ground_force_pz	l_ground_force_vx	l_ground_force_vy	l_ground_force_vz	l_ground_force_px	l_ground_force_py	l_ground_force_pz	ground_torque_x	ground_torque_y	ground_torque_z	l_ground_torque_x	l_ground_torque_y	l_ground_torque_z
0.290000	-31.453299	179.479797	1.785803	-0.297532	-0.006843	0.170368	0.000000	0.000000	0.000000	0.000000	0.000000	0.000000	-0.000554	0.609380	-0.001364	0.000000	0.000000	0.000000
0.300000	-41.969460	225.144501	-2.287299	-0.293131	-0.007775	0.172481	0.000000	0.000000	0.000000	0.000000	0.000000	0.000000	-0.000706	0.776395	-0.001738	0.000000	0.000000	0.000000
0.310000	-51.804729	267.123108	-7.809587	-0.288357	-0.008373	0.175042	0.000000	0.000000	0.000000	0.000000	0.000000	0.000000	-0.000831	0.914109	-0.002046	0.000000	0.000000	0.000000
0.320000	-60.250050	304.214661	-13.960079	-0.283276	-0.008632	0.178035	0.000000	0.000000	0.000000	0.000000	0.000000	0.000000	-0.000910	1.001325	-0.002241	0.000000	0.000000	0.000000
0.330000	-66.869331	335.322723	-19.816002	-0.278015	-0.008595	0.181258	0.000000	0.000000	0.000000	0.000000	0.000000	0.000000	-0.000915	1.006449	-0.002253	0.000000	0.000000	0.000000
0.340000	-71.102394	359.753723	-24.516327	-0.272789	-0.008330	0.184412	0.000000	0.000000	0.000000	0.000000	0.000000	0.000000	-0.000829	0.911613	-0.002041	0.000000	0.000000	0.000000
0.350000	-72.707382	377.147644	-27.572674	-0.267749	-0.007912	0.187255	0.000000	0.000000	0.000000	0.000000	0.000000	0.000000	-0.000671	0.737835	-0.001652	0.000000	0.000000	0.000000
0.360000	-71.924919	387.313934	-28.873604	-0.262903	-0.007417	0.189682	0.000000	0.000000	0.000000	0.000000	0.000000	0.000000	-0.000476	0.523855	-0.001173	0.000000	0.000000	0.000000
0.370000	-69.237198	390.443726	-28.539494	-0.258182	-0.006912	0.191686	0.000000	0.000000	0.000000	0.000000	0.000000	0.000000	-0.000279	0.307193	-0.000688	0.000000	0.000000	0.000000
0.380000	-65.163376	386.968719	-26.951918	-0.253482	-0.006446	0.193359	0.000000	0.000000	0.000000	0.000000	0.000000	0.000000	-0.000108	0.118759	-0.000266	0.000000	0.000000	0.000000
0.390000	-60.131042	377.428894	-24.681149	-0.248702	-0.006042	0.194860	0.000000	0.000000	0.000000	0.000000	0.000000	0.000000	0.000022	-0.023916	0.000054	0.000000	0.000000	0.000000
0.400000	-54.523529	362.499878	-22.251471	-0.243745	-0.005703	0.196351	0.000000	0.000000	0.000000	0.000000	0.000000	0.000000	0.000104	-0.114013	0.000255	0.000000	0.000000	0.000000
0.410000	-48.611069	343.091644	-20.042356	-0.238552	-0.005414	0.197966	0.000000	0.000000	0.000000	0.000000	0.000000	0.000000	0.000142	-0.155934	0.000349	0.000000	0.000000	0.000000
0.420000	-42.567970	320.377167	-18.290295	-0.233101	-0.005150	0.199789	0.000000	0.000000	0.000000	0.000000	0.000000	0.000000	0.000148	-0.163211	0.000365	0.000000	0.000000	0.000000
0.430000	-36.574928	295.668091	-17.059174	-0.227398	-0.004889	0.201844	0.000000	0.000000	0.000000	0.000000	0.000000	0.000000	0.000136	-0.149621	0.000335	0.000000	0.000000	0.000000
0.440000	-30.810314	270.327911	-16.246567	-0.221493	-0.004614	0.204097	0.000000	0.000000	0.000000	0.000000	0.000000	0.000000	0.000112	-0.123307	0.000276	0.000000	0.000000	0.000000
0.450000	-25.420444	245.676727	-15.654072	-0.215496	-0.004318	0.206464	0.000000	0.000000	0.000000	0.000000	0.000000	0.000000	0.000078	-0.085546	0.000191	0.000000	0.000000	0.000000
0.460000	-20.489090	222.892975	-15.090100	-0.209594	-0.004004	0.208815	0.000000	0.000000	0.000000	0.000000	0.000000	0.000000	0.000030	-0.032949	0.000074	0.000000	0.000000	0.000000
0.470000	-16.040058	202.900558	-14.455231	-0.204032	-0.003677	0.211012	0.000000	0.000000	0.000000	0.000000	0.000000	0.000000	-0.000034	0.037199	-0.000083	0.000000	0.000000	0.000000
0.480000	-12.074789	186.289185	-13.754107	-0.199058	-0.003345	0.212944	0.000000	0.000000	0.000000	0.000000	0.000000	0.000000	-0.000113	0.123859	-0.000277	0.000000	0.000000	0.000000
0.490000	-8.598933	173.317322	-13.043854	-0.194857	-0.003011	0.214550	0.000000	0.000000	0.000000	0.000000	0.000000	0.000000	-0.000203	0.223246	-0.000500	0.000000	0.000000	0.000000
0.500000	-5.614107	163.998062	-12.371909	-0.191508	-0.002686	0.215801	0.000000	0.000000	0.000000	0.000000	0.000000	0.000000	-0.000302	0.332112	-0.000743	0.000000	0.000000	0.000000
0.510000	-3.097311	158.211090	-11.726659	-0.188976	-0.002381	0.216679	0.000000	0.000000	0.000000	0.000000	0.000000	0.000000	-0.000411	0.452233	-0.001012	0.000000	0.000000	0.000000
0.520000	-0.971925	155.789139	-11.054680	-0.187146	-0.002111	0.217174	0.000000	0.000000	0.000000	0.000000	0.000000	0.000000	-0.000535	0.588223	-0.001317	0.000000	0.000000	0.000000
0.530000	0.879860	156.581512	-10.323404	-0.185859	-0.001885	0.217322	0.000000	0.000000	0.000000	0.000000	0.000000	0.000000	-0.000674	0.741666	-0.001660	0.000000	0.000000	0.000000
0.540000	2.586381	160.480072	-9.530243	-0.184949	-0.001709	0.217182	0.000000	0.000000	0.000000	0.000000	0.000000	0.000000	-0.000828	0.910629	-0.002038	0.000000	0.000000	0.000000
0.550000	4.275521	167.382019	-8.686548	-0.184267	-0.001578	0.216833	0.000000	0.000000	0.000000	0.000000	0.000000	0.000000	-0.000993	1.091852	-0.002444	0.000000	0.000000	0.000000
0.560000	6.076153	177.155151	-7.803303	-0.183700	-0.001488	0.216357	0.000000	0.000000	0.000000	0.000000	0.000000	0.000000	-0.001165	1.282120	-0.002870	0.000000	0.000000	0.000000
0.570000	8.119936	189.614120	-6.890045	-0.183174	-0.001434	0.215824	0.000000	0.000000	0.000000	0.000000	0.000000	0.000000	-0.001344	1.478789	-0.003310	0.000000	0.000000	0.000000
0.580000	10.541503	204.488647	-5.966348	-0.182658	-0.001413	0.215289	0.000000	0.000000	0.000000	0.000000	0.000000	0.000000	-0.001526	1.678725	-0.003758	0.000000	0.000000	0.000000
0.590000	13.478933	221.377914	-5.068593	-0.182149	-0.001434	0.214798	0.000000	0.000000	0.000000	0.000000	0.000000	0.000000	-0.001706	1.876749	-0.004201	0.000000	0.000000	0.000000
0.600000	17.071022	239.724182	-4.245082	-0.181661	-0.001507	0.214364	0.000000	0.000000	0.000000	0.000000	0.000000	0.000000	-0.001877	2.065224	-0.004623	0.000000	0.000000	0.000000
0.610000	21.438305	258.810455	-3.541615	-0.181219	-0.001633	0.213971	0.000000	0.000000	0.000000	0.000000	0.000000	0.000000	-0.002031	2.234739	-0.005003	0.000000	0.000000	0.000000
0.620000	26.651236	277.770538	-2.994302	-0.180833	-0.001802	0.213590	0.000000	0.000000	0.000000	0.000000	0.000000	0.000000	-0.002158	2.374302	-0.005315	0.000000	0.000000	0.000000
0.630000	32.700104	295.613800	-2.622024	-0.180490	-0.001989	0.213197	0.000000	0.000000	0.000000	0.000000	0.000000	0.000000	-0.002248	2.473192	-0.005536	0.000000	0.000000	0.000000
0.640000	39.479111	311.236633	-2.412116	-0.180158	-0.002177	0.212767	0.000000	0.000000	0.000000	0.000000	0.000000	0.000000	-0.002293	2.522676	-0.005647	0.000000	0.000000	0.000000
0.650000	46.763725	323.420044	-2.299508	-0.179802	-0.002357	0.212294	0.000000	0.000000	0.000000	0.000000	0.000000	0.000000	-0.002290	2.519167	-0.005639	0.000000	0.000000	0.000000
0.660000	54.192337	330.871216	-2.158595	-0.179401	-0.002530	0.211779	0.000000	0.000000	0.000000	0.000000	0.000000	0.000000	-0.002242	2.466726	-0.005522	0.000000	0.000000	0.000000
0.670000	61.262638	332.330780	-1.827979	-0.178947	-0.002703	0.211231	0.000000	0.000000	0.000000	0.000000	0.000000	0.000000	-0.002160	2.376291	-0.005319	0.000000	0.000000	0.000000
0.680000	67.359154	326.734192	-1.160398	-0.178445	-0.002878	0.210649	0.000000	0.000000	0.000000	0.000000	0.000000	0.000000	-0.002056	2.261337	-0.005062	0.000000	0.000000	0.000000
0.690000	71.808777	313.365692	-0.073535	-0.177928	-0.003051	0.209988	0.000000	0.000000	0.000000	0.000000	0.000000	0.000000	-0.001940	2.134073	-0.004777	0.000000	0.000000	0.000000
0.700000	73.956314	291.978973	1.410551	-0.177487	-0.003205	0.209133	-0.107831	26.095482	-2.856714	0.261735	-0.002551	0.218639	-0.001820	2.001915	-0.004481	0.000457	0.066021	-0.001174
0.710000	73.247665	262.913269	3.139361	-0.177299	-0.003301	0.207883	-3.459779	51.729935	-4.431871	0.276187	-0.003128	0.219651	-0.001696	1.865229	-0.004175	0.000305	0.044094	-0.000784
0.720000	69.340256	227.233856	4.833013	-0.177660	-0.003268	0.205962	-8.905179	85.624817	-6.156227	0.285951	-0.003463	0.220775	-0.001561	1.717175	-0.003844	0.000141	0.020346	-0.000362
0.730000	62.247036	186.861374	6.142365	-0.179008	-0.003012	0.203054	-16.750311	125.360580	-7.679689	0.295318	-0.003406	0.221986	-0.001408	1.548410	-0.003466	-0.000048	-0.006899	0.000123
0.740000	52.468109	144.581238	6.758516	-0.181887	-0.002425	0.198918	-26.831903	167.597290	-8.628615	0.306279	-0.002786	0.223350	-0.001229	1.351821	-0.003026	-0.000223	-0.032189	0.000573
